<?xml version="1.0" encoding="UTF-8"?>
<!DOCTYPE svg PUBLIC "-//W3C//DTD SVG 1.1//EN" "http://www.w3.org/Graphics/SVG/1.1/DTD/svg11.dtd">
<!-- Creator: CorelDRAW X8 -->
<svg xmlns="http://www.w3.org/2000/svg" xml:space="preserve" width="180.622mm" height="180.622mm" version="1.1" style="shape-rendering:geometricPrecision; text-rendering:geometricPrecision; image-rendering:optimizeQuality; fill-rule:evenodd; clip-rule:evenodd"
viewBox="0 0 18062 18062"
 xmlns:xlink="http://www.w3.org/1999/xlink">
 <defs>
  <style type="text/css">
   <![CDATA[
    .fil0 {fill:#4CAF50}
   ]]>
  </style>
 </defs>
 <g id="Слой_x0020_1">
  <metadata id="CorelCorpID_0Corel-Layer"/>
  <path class="fil0" d="M18062 2070c0,-1142 -928,-2070 -2069,-2070l-13923 0c-1142,0 -2070,928 -2070,2070l0 13923c0,1141 928,2069 2070,2069l13923 0c1141,0 2069,-928 2069,-2069l0 -13923zm-3888 3541c201,201 301,464 301,727 0,263 -100,526 -301,727l0 1 -5386 5385c-98,98 -211,172 -333,223 -127,52 -261,78 -394,78 -133,0 -267,-26 -394,-78 -122,-51 -235,-125 -333,-223l-2693 -2693 0 -1c-201,-201 -302,-463 -302,-726l1 0c0,-263 100,-526 301,-726l0 -1 0 0c201,-201 464,-302 727,-302l0 1c263,0 526,100 727,301l0 0 1966 1965 4659 -4658c201,-201 464,-301 727,-301 262,0 525,100 726,301l1 0 0 0z"/>
 </g>
</svg>
