<svg height="40px" viewBox="0 0 512 512" width="40px" xmlns="http://www.w3.org/2000/svg"><path fill="rgba(40,40,45,.45)" d="m432 0h-352c-44.160156.0546875-79.9453125 35.839844-80 80v352c.0546875 44.160156 35.839844 79.945312 80 80h352c44.160156-.054688 79.945312-35.839844 80-80v-352c-.054688-44.160156-35.839844-79.9453125-80-80zm48 432c0 26.507812-21.492188 48-48 48h-352c-26.507812 0-48-21.492188-48-48v-352c0-26.507812 21.492188-48 48-48h352c26.507812 0 48 21.492188 48 48zm0 0"/><path fill="rgba(40,40,45,.45)" d="m244.6875 68.6875-90.511719 90.511719 22.625 22.625 63.199219-63.199219v329.375h32v-329.375l63.199219 63.199219 22.625-22.625-90.511719-90.511719c-6.25-6.246094-16.375-6.246094-22.625 0zm0 0"/></svg>